<svg width="253" height="111" viewBox="0 0 253 111" fill="none" xmlns="http://www.w3.org/2000/svg">
<mask id="path-1-outside-1_2570_11158" maskUnits="userSpaceOnUse" x="-2" y="-2" width="257" height="115" fill="black">
<rect fill="white" x="-2" y="-2" width="257" height="115"/>
<path d="M77.7383 70.1084V85.3428H0.907227L0.101562 73.624L45.292 2.35938H60.7461L44.0469 30.7041L19.8037 70.1084H77.7383ZM65.0674 2.35938V109H45.6582V2.35938H65.0674ZM161.454 46.5244V64.4688C161.454 72.6719 160.624 79.6787 158.964 85.4893C157.304 91.2998 154.911 96.0605 151.786 99.7715C148.661 103.434 144.926 106.144 140.58 107.901C136.234 109.61 131.4 110.465 126.078 110.465C121.83 110.465 117.875 109.928 114.213 108.854C110.551 107.73 107.255 106.021 104.325 103.727C101.444 101.383 98.9541 98.4043 96.8545 94.791C94.8037 91.1777 93.2168 86.8564 92.0938 81.8271C91.0195 76.7979 90.4824 71.0117 90.4824 64.4688V46.5244C90.4824 38.3213 91.3125 31.3389 92.9727 25.5771C94.6816 19.8154 97.0986 15.1035 100.224 11.4414C103.349 7.7793 107.084 5.11816 111.43 3.45801C115.775 1.74902 120.609 0.894531 125.932 0.894531C130.229 0.894531 134.184 1.43164 137.797 2.50586C141.459 3.58008 144.73 5.26465 147.611 7.55957C150.541 9.80566 153.031 12.7354 155.082 16.3486C157.133 19.9131 158.695 24.21 159.77 29.2393C160.893 34.2197 161.454 39.9814 161.454 46.5244ZM142.118 67.1055V43.8145C142.118 39.7129 141.874 36.1484 141.386 33.1211C140.946 30.0449 140.287 27.4326 139.408 25.2842C138.529 23.1357 137.431 21.4023 136.112 20.084C134.794 18.7168 133.28 17.7158 131.571 17.0811C129.862 16.4463 127.982 16.1289 125.932 16.1289C123.393 16.1289 121.122 16.6416 119.12 17.667C117.118 18.6436 115.434 20.2061 114.066 22.3545C112.699 24.5029 111.649 27.3594 110.917 30.9238C110.233 34.4395 109.892 38.7363 109.892 43.8145V67.1055C109.892 71.207 110.111 74.7959 110.551 77.8721C111.039 80.9482 111.723 83.585 112.602 85.7822C113.529 87.9795 114.628 89.7861 115.897 91.2021C117.216 92.5693 118.729 93.5947 120.438 94.2783C122.147 94.9131 124.027 95.2305 126.078 95.2305C128.666 95.2305 130.937 94.7178 132.89 93.6924C134.892 92.667 136.576 91.0557 137.943 88.8584C139.311 86.6123 140.336 83.707 141.02 80.1426C141.752 76.5293 142.118 72.1836 142.118 67.1055ZM252.055 70.1084V85.3428H175.224L174.418 73.624L219.608 2.35938H235.062L218.363 30.7041L194.12 70.1084H252.055ZM239.384 2.35938V109H219.975V2.35938H239.384Z"/>
</mask>
<path d="M77.7383 70.1084H79.7383V68.1084H77.7383V70.1084ZM77.7383 85.3428V87.3428H79.7383V85.3428H77.7383ZM0.907227 85.3428L-1.08806 85.4799L-0.959994 87.3428H0.907227V85.3428ZM0.101562 73.624L-1.58747 72.553L-1.93871 73.1069L-1.89373 73.7612L0.101562 73.624ZM45.292 2.35938V0.359375H44.192L43.603 1.28832L45.292 2.35938ZM60.7461 2.35938L62.4693 3.37458L64.2457 0.359375H60.7461V2.35938ZM44.0469 30.7041L45.7503 31.7521L45.7603 31.7358L45.7701 31.7193L44.0469 30.7041ZM19.8037 70.1084L18.1003 69.0604L16.225 72.1084H19.8037V70.1084ZM65.0674 2.35938H67.0674V0.359375H65.0674V2.35938ZM65.0674 109V111H67.0674V109H65.0674ZM45.6582 109H43.6582V111H45.6582V109ZM45.6582 2.35938V0.359375H43.6582V2.35938H45.6582ZM75.7383 70.1084V85.3428H79.7383V70.1084H75.7383ZM77.7383 83.3428H0.907227V87.3428H77.7383V83.3428ZM2.90252 85.2056L2.09685 73.4868L-1.89373 73.7612L-1.08806 85.4799L2.90252 85.2056ZM1.7906 74.6951L46.981 3.43043L43.603 1.28832L-1.58747 72.553L1.7906 74.6951ZM45.292 4.35938H60.7461V0.359375H45.292V4.35938ZM59.0229 1.34417L42.3237 29.6889L45.7701 31.7193L62.4693 3.37458L59.0229 1.34417ZM42.3434 29.6561L18.1003 69.0604L21.5071 71.1564L45.7503 31.7521L42.3434 29.6561ZM19.8037 72.1084H77.7383V68.1084H19.8037V72.1084ZM63.0674 2.35938V109H67.0674V2.35938H63.0674ZM65.0674 107H45.6582V111H65.0674V107ZM47.6582 109V2.35938H43.6582V109H47.6582ZM45.6582 4.35938H65.0674V0.359375H45.6582V4.35938ZM151.786 99.7715L153.308 101.07L153.316 101.06L151.786 99.7715ZM140.58 107.901L141.312 109.763L141.321 109.759L141.33 109.755L140.58 107.901ZM114.213 108.854L113.627 110.766L113.638 110.769L113.65 110.773L114.213 108.854ZM104.325 103.727L103.063 105.278L103.077 105.29L103.092 105.301L104.325 103.727ZM96.8545 94.791L95.1151 95.7782L95.1201 95.7871L95.1252 95.7959L96.8545 94.791ZM92.0938 81.8271L90.1379 82.2449L90.1398 82.254L90.1418 82.263L92.0938 81.8271ZM92.9727 25.5771L91.0552 25.0084L91.053 25.0159L91.0508 25.0234L92.9727 25.5771ZM111.43 3.45801L112.143 5.32632L112.153 5.32283L112.162 5.31926L111.43 3.45801ZM137.797 2.50586L137.227 4.42294L137.234 4.425L137.797 2.50586ZM147.611 7.55957L146.365 9.12389L146.38 9.13547L146.394 9.14678L147.611 7.55957ZM155.082 16.3486L153.343 17.3359L153.348 17.346L155.082 16.3486ZM159.77 29.2393L157.814 29.657L157.816 29.6681L157.819 29.6792L159.77 29.2393ZM141.386 33.1211L139.406 33.4039L139.408 33.4218L139.411 33.4396L141.386 33.1211ZM136.112 20.084L134.673 21.4723L134.685 21.4853L134.698 21.4982L136.112 20.084ZM119.12 17.667L119.997 19.4645L120.015 19.456L120.032 19.4471L119.12 17.667ZM110.917 30.9238L108.958 30.5213L108.956 30.5317L108.954 30.5421L110.917 30.9238ZM110.551 77.8721L108.571 78.1549L108.573 78.1703L108.576 78.1856L110.551 77.8721ZM112.602 85.7822L110.745 86.525L110.752 86.5427L110.759 86.5602L112.602 85.7822ZM115.897 91.2021L114.408 92.5372L114.433 92.5643L114.458 92.5904L115.897 91.2021ZM120.438 94.2783L119.696 96.1353L119.719 96.1445L119.742 96.1532L120.438 94.2783ZM132.89 93.6924L131.978 91.9123L131.969 91.9169L131.96 91.9216L132.89 93.6924ZM137.943 88.8584L139.641 89.915L139.647 89.9067L139.652 89.8983L137.943 88.8584ZM141.02 80.1426L139.059 79.7453L139.057 79.7556L139.055 79.7659L141.02 80.1426ZM159.454 46.5244V64.4688H163.454V46.5244H159.454ZM159.454 64.4688C159.454 72.5475 158.635 79.3588 157.041 84.9398L160.887 86.0387C162.613 79.9987 163.454 72.7962 163.454 64.4688H159.454ZM157.041 84.9398C155.44 90.5438 153.161 95.0342 150.256 98.4832L153.316 101.06C156.662 97.0869 159.168 92.0558 160.887 86.0387L157.041 84.9398ZM150.265 98.4732C147.343 101.898 143.87 104.413 139.83 106.047L141.33 109.755C145.982 107.874 149.98 104.97 153.308 101.07L150.265 98.4732ZM139.848 106.04C135.766 107.646 131.185 108.465 126.078 108.465V112.465C131.616 112.465 136.703 111.575 141.312 109.763L139.848 106.04ZM126.078 108.465C121.999 108.465 118.236 107.949 114.776 106.934L113.65 110.773C117.514 111.906 121.661 112.465 126.078 112.465V108.465ZM114.799 106.941C111.365 105.888 108.289 104.291 105.559 102.152L103.092 105.301C106.22 107.752 109.737 109.573 113.627 110.766L114.799 106.941ZM105.587 102.175C102.916 100.002 100.577 97.2165 98.5837 93.7862L95.1252 95.7959C97.3311 99.5921 99.9728 102.764 103.063 105.278L105.587 102.175ZM98.5939 93.8038C96.661 90.3983 95.1355 86.2717 94.0457 81.3913L90.1418 82.263C91.2981 87.4412 92.9464 91.9572 95.1151 95.7782L98.5939 93.8038ZM94.0496 81.4094C93.0114 76.5486 92.4824 70.9073 92.4824 64.4688H88.4824C88.4824 71.1162 89.0277 77.0471 90.1379 82.2449L94.0496 81.4094ZM92.4824 64.4688V46.5244H88.4824V64.4688H92.4824ZM92.4824 46.5244C92.4824 38.4449 93.3013 31.6602 94.8945 26.1309L91.0508 25.0234C89.3237 31.0175 88.4824 38.1976 88.4824 46.5244H92.4824ZM94.8901 26.1459C96.5387 20.5877 98.8408 16.1431 101.745 12.7396L98.7023 10.1432C95.3565 14.064 92.8246 19.0431 91.0552 25.0084L94.8901 26.1459ZM101.745 12.7396C104.661 9.32292 108.122 6.86277 112.143 5.32632L110.716 1.5897C106.046 3.37356 102.037 6.23567 98.7023 10.1432L101.745 12.7396ZM112.162 5.31926C116.244 3.71385 120.825 2.89453 125.932 2.89453V-1.10547C120.394 -1.10547 115.307 -0.215805 110.698 1.59676L112.162 5.31926ZM125.932 2.89453C130.062 2.89453 133.822 3.41077 137.227 4.42293L138.367 0.588787C134.545 -0.547492 130.395 -1.10547 125.932 -1.10547V2.89453ZM137.234 4.425C140.657 5.42899 143.694 6.99622 146.365 9.12389L148.857 5.99525C145.767 3.53308 142.261 1.73116 138.36 0.586721L137.234 4.425ZM146.394 9.14678C149.086 11.2106 151.408 13.9264 153.343 17.3358L156.821 15.3614C154.655 11.5443 151.996 8.40069 148.828 5.97236L146.394 9.14678ZM153.348 17.346C155.273 20.6914 156.773 24.7826 157.814 29.657L161.725 28.8215C160.618 23.6373 158.992 19.1348 156.816 15.3512L153.348 17.346ZM157.819 29.6792C158.901 34.4815 159.454 40.0903 159.454 46.5244H163.454C163.454 39.8726 162.884 33.9579 161.721 28.7993L157.819 29.6792ZM144.118 67.1055V43.8145H140.118V67.1055H144.118ZM144.118 43.8145C144.118 39.6394 143.87 35.9636 143.36 32.8026L139.411 33.4396C139.878 36.3332 140.118 39.7864 140.118 43.8145H144.118ZM143.366 32.8383C142.91 29.6504 142.217 26.869 141.259 24.5269L137.557 26.0414C138.357 27.9963 138.982 30.4395 139.406 33.4039L143.366 32.8383ZM141.259 24.5269C140.304 22.1909 139.073 20.2159 137.527 18.6698L134.698 21.4982C135.789 22.5888 136.755 24.0805 137.557 26.0414L141.259 24.5269ZM137.552 18.6957C136.034 17.1219 134.27 15.9498 132.268 15.2062L130.875 18.9559C132.291 19.4819 133.553 20.3117 134.673 21.4723L137.552 18.6957ZM132.268 15.2062C130.31 14.479 128.191 14.1289 125.932 14.1289V18.1289C127.774 18.1289 129.415 18.4136 130.875 18.9559L132.268 15.2062ZM125.932 14.1289C123.117 14.1289 120.527 14.6993 118.208 15.8869L120.032 19.4471C121.717 18.5839 123.668 18.1289 125.932 18.1289V14.1289ZM118.243 15.8695C115.864 17.03 113.915 18.8664 112.379 21.2807L115.754 23.4282C116.952 21.5457 118.372 20.2571 119.997 19.4645L118.243 15.8695ZM112.379 21.2807C110.838 23.7023 109.72 26.8123 108.958 30.5213L112.876 31.3264C113.579 27.9064 114.56 25.3036 115.754 23.4282L112.379 21.2807ZM108.954 30.5421C108.238 34.2235 107.892 38.6566 107.892 43.8145H111.892C111.892 38.816 112.229 34.6554 112.88 31.3056L108.954 30.5421ZM107.892 43.8145V67.1055H111.892V43.8145H107.892ZM107.892 67.1055C107.892 71.2737 108.115 74.9609 108.571 78.1549L112.531 77.5892C112.108 74.6309 111.892 71.1404 111.892 67.1055H107.892ZM108.576 78.1856C109.08 81.3655 109.796 84.154 110.745 86.525L114.459 85.0394C113.649 83.0159 112.998 80.5309 112.526 77.5585L108.576 78.1856ZM110.759 86.5602C111.752 88.9118 112.959 90.9205 114.408 92.5372L117.387 89.8671C116.297 88.6517 115.307 87.0471 114.444 85.0043L110.759 86.5602ZM114.458 92.5904C115.966 94.1547 117.715 95.3432 119.696 96.1353L121.181 92.4214C119.744 91.8463 118.465 90.9839 117.337 89.8139L114.458 92.5904ZM119.742 96.1532C121.7 96.8804 123.819 97.2305 126.078 97.2305V93.2305C124.236 93.2305 122.595 92.9458 121.135 92.4035L119.742 96.1532ZM126.078 97.2305C128.934 97.2305 131.534 96.6632 133.819 95.4632L131.96 91.9216C130.339 92.7724 128.398 93.2305 126.078 93.2305V97.2305ZM133.801 95.4725C136.172 94.2581 138.112 92.3731 139.641 89.915L136.245 87.8018C135.04 89.7382 133.611 91.0759 131.978 91.9123L133.801 95.4725ZM139.652 89.8983C141.181 87.3868 142.271 84.2354 142.984 80.5193L139.055 79.7659C138.401 83.1786 137.441 85.8378 136.235 87.8185L139.652 89.8983ZM142.98 80.5399C143.746 76.7573 144.118 72.271 144.118 67.1055H140.118C140.118 72.0962 139.758 76.3013 139.059 79.7453L142.98 80.5399ZM252.055 70.1084H254.055V68.1084H252.055V70.1084ZM252.055 85.3428V87.3428H254.055V85.3428H252.055ZM175.224 85.3428L173.228 85.4799L173.356 87.3428H175.224V85.3428ZM174.418 73.624L172.729 72.553L172.378 73.1069L172.423 73.7612L174.418 73.624ZM219.608 2.35938V0.359375H218.508L217.919 1.28832L219.608 2.35938ZM235.062 2.35938L236.786 3.37458L238.562 0.359375H235.062V2.35938ZM218.363 30.7041L220.067 31.7521L220.077 31.7358L220.086 31.7193L218.363 30.7041ZM194.12 70.1084L192.417 69.0604L190.541 72.1084H194.12V70.1084ZM239.384 2.35938H241.384V0.359375H239.384V2.35938ZM239.384 109V111H241.384V109H239.384ZM219.975 109H217.975V111H219.975V109ZM219.975 2.35938V0.359375H217.975V2.35938H219.975ZM250.055 70.1084V85.3428H254.055V70.1084H250.055ZM252.055 83.3428H175.224V87.3428H252.055V83.3428ZM177.219 85.2056L176.413 73.4868L172.423 73.7612L173.228 85.4799L177.219 85.2056ZM176.107 74.6951L221.297 3.43043L217.919 1.28832L172.729 72.553L176.107 74.6951ZM219.608 4.35938H235.062V0.359375H219.608V4.35938ZM233.339 1.34417L216.64 29.6889L220.086 31.7193L236.786 3.37458L233.339 1.34417ZM216.66 29.6561L192.417 69.0604L195.824 71.1564L220.067 31.7521L216.66 29.6561ZM194.12 72.1084H252.055V68.1084H194.12V72.1084ZM237.384 2.35938V109H241.384V2.35938H237.384ZM239.384 107H219.975V111H239.384V107ZM221.975 109V2.35938H217.975V109H221.975ZM219.975 4.35938H239.384V0.359375H219.975V4.35938Z" fill="white" mask="url(#path-1-outside-1_2570_11158)"/>
</svg>
