<svg width="464" height="200" viewBox="0 0 464 200" fill="none" xmlns="http://www.w3.org/2000/svg">
<g clip-path="url(#clip0_2107_6301)">
<path d="M50.5594 34.0788H47.4058V17.3953H50.5594V24.0076H54.9337V17.3953H58.0873V34.0788H54.9337V26.4491H50.5594V34.0788Z" fill="#127971"/>
<path d="M67.548 34.0788H64.1909L68.1583 17.3953H72.3292L76.0932 34.0788H72.7361L71.9223 29.8062H68.2601L67.548 34.0788ZM69.786 22.6852L68.8704 27.4664H71.5154L70.7016 22.7869C70.5998 22.4817 70.5998 22.1765 70.5998 21.9731C70.5998 21.6679 70.4981 21.261 70.3964 20.5489L70.1929 19.3281L69.9895 20.4471C69.8877 20.9558 69.8877 21.3627 69.8877 21.7696C69.8877 21.9731 69.786 22.38 69.786 22.6852Z" fill="#127971"/>
<path d="M88.6059 28.1787H91.7595L91.6577 29.0942C91.6577 30.7219 91.3525 32.0444 90.6404 32.9599C89.8266 33.9772 88.6059 34.4859 86.9782 34.4859C85.3506 34.4859 84.1298 34.1807 83.316 33.4686C82.6039 32.8582 82.0952 31.9426 81.7901 30.7219C81.5866 29.8063 81.4849 28.4839 81.4849 26.7545V24.4147C81.4849 21.8715 81.7901 20.1421 82.2987 19.1248C83.1125 17.7006 84.6385 16.9885 86.8765 16.9885C88.3007 16.9885 89.4197 17.3954 90.2335 18.1075C91.0474 18.8196 91.4543 19.9387 91.4543 21.3629C91.556 21.7698 91.556 22.1767 91.556 22.6853H88.5041C88.3007 21.3629 88.3007 20.7525 88.3007 20.7525C88.0972 20.0404 87.6903 19.6335 86.9782 19.6335C86.0627 19.6335 85.4523 20.0404 85.0454 20.9559C84.8419 21.4646 84.7402 22.2784 84.7402 23.2957V23.8043V28.4839C84.7402 29.5012 84.8419 30.315 85.0454 30.8236C85.3506 31.7392 86.0627 32.1461 86.9782 32.1461C87.6903 32.1461 88.199 31.6375 88.4024 30.6202C88.6059 30.0098 88.6059 29.196 88.6059 28.1787Z" fill="#127971"/>
<path d="M97.1509 19.9386V17.4971H107.527V19.9386H103.865V34.1806H100.711V19.9386H97.1509Z" fill="#127971"/>
<path d="M113.326 26.7545V24.4147C113.326 21.8715 113.631 20.1421 114.14 19.1248C114.953 17.7006 116.479 16.9885 118.717 16.9885C120.955 16.9885 122.481 17.7006 123.295 19.1248C123.905 20.1421 124.211 21.8715 124.211 24.4147V26.7545C124.211 28.5856 124.109 29.8063 123.905 30.7219C123.702 31.9426 123.193 32.8582 122.481 33.4686C121.667 34.1807 120.447 34.4859 118.819 34.4859C117.191 34.4859 115.971 34.1807 115.157 33.4686C114.445 32.8582 113.936 31.9426 113.631 30.7219C113.427 29.8063 113.326 28.4839 113.326 26.7545ZM116.479 23.7026V28.3821C116.479 29.3994 116.581 30.2133 116.784 30.7219C117.09 31.6375 117.802 32.0444 118.717 32.0444C119.735 32.0444 120.345 31.6375 120.65 30.7219C120.854 30.2133 120.955 29.3994 120.955 28.1787V23.9061C120.955 22.6853 120.854 21.7698 120.752 21.2611C120.447 20.1421 119.735 19.6335 118.717 19.6335C117.802 19.6335 117.191 20.0404 116.784 20.9559C116.581 21.4646 116.479 22.2784 116.479 23.2957V23.7026Z" fill="#127971"/>
<path d="M141.2 34.0789H138.046V19.8369H134.384V27.0597C134.384 29.6029 134.18 31.434 133.773 32.2478C133.163 33.672 131.739 34.3841 129.603 34.3841V31.6374C130.416 31.6374 131.027 31.2305 131.23 30.4167C131.434 29.9081 131.434 28.6873 131.434 26.8562V17.2937H141.098V34.0789H141.2Z" fill="#127971"/>
<path d="M151.779 17.3953V24.1094H153.916C154.628 24.1094 155.238 24.2111 155.849 24.3128C156.459 24.4145 156.968 24.7197 157.476 25.1266C158.087 25.5336 158.392 26.1439 158.697 26.856C158.9 27.5681 159.002 28.2802 159.002 29.0941C159.002 30.5183 158.595 31.739 157.883 32.6546C157.069 33.6719 155.849 34.0788 154.221 34.0788H148.728V17.3953H151.779ZM151.779 31.6373H153.204C154.119 31.6373 154.73 31.4338 155.136 31.1286C155.543 30.8234 155.747 30.1113 155.747 29.1958C155.747 28.2802 155.543 27.5681 155.136 27.1612C154.73 26.7543 154.221 26.5508 153.509 26.5508H151.881V31.6373H151.779Z" fill="#127971"/>
<path d="M168.564 34.0788H165.411V17.3953H168.564V24.0076H172.939V17.3953H176.092V34.0788H172.939V26.4491H168.564V34.0788Z" fill="#127971"/>
<path d="M185.553 34.0788H182.196L186.163 17.3953H190.334L194.098 34.0788H190.741L189.927 29.8062H186.265L185.553 34.0788ZM187.791 22.6852L186.876 27.3647H189.521L188.707 22.6852C188.605 22.38 188.605 22.0748 188.605 21.8713C188.605 21.5661 188.503 21.1592 188.401 20.4471L188.198 19.3281L187.995 20.4471C187.893 20.9558 187.893 21.3627 187.893 21.7696C187.893 21.9731 187.893 22.38 187.791 22.6852Z" fill="#127971"/>
<path d="M210.477 34.0788H207.323V26.8561H206.815C206.408 26.8561 205.899 26.8561 205.492 26.8561C205.085 26.8561 204.577 26.9578 204.17 27.0596C203.763 27.1613 203.458 27.5682 203.254 28.1786C203.152 28.4838 203.152 29.0941 203.152 29.8062V30.8235C203.152 31.6374 203.152 32.2477 203.051 32.7564C203.051 33.265 202.949 33.6719 202.745 34.0788H199.287V33.7737C199.592 33.5702 199.694 33.0616 199.795 32.0443C199.897 31.027 199.897 30.1114 199.897 29.0941V28.4838C199.897 27.5682 200.1 26.9578 200.406 26.4492C200.813 25.9405 201.423 25.5336 202.338 25.4319C201.423 25.3302 200.711 24.8215 200.304 24.0077C199.999 23.3973 199.795 22.4818 199.795 21.4645C199.795 20.0403 200.202 18.9213 201.118 18.3109C201.932 17.7005 203.051 17.4971 204.475 17.4971H210.375V34.0788H210.477ZM207.323 24.5163V19.9386H204.983C204.373 19.9386 203.864 20.0403 203.559 20.3455C203.254 20.6507 203.051 21.261 203.051 22.1766C203.051 22.9904 203.254 23.6008 203.559 24.0077C203.864 24.4146 204.373 24.6181 204.882 24.6181H207.323V24.5163Z" fill="#127971"/>
<path d="M388.502 34.0789H385.348V30.9253C385.348 30.4167 385.348 29.7046 385.45 28.5856C385.552 27.4666 385.552 26.7545 385.552 26.2458C385.552 25.6355 385.654 24.6182 385.755 23.194C385.857 22.4819 385.857 21.8715 385.857 21.5663C385.45 23.0922 385.043 24.2113 384.738 25.1268C384.433 26.1441 384.026 27.1614 383.619 28.1787L381.177 34.0789H377.922V17.3954H381.076V20.6507C381.076 21.1594 381.076 21.7698 381.076 22.3801C380.974 23.9061 380.974 24.9234 380.974 25.3303L380.669 30.0098C381.076 28.5856 381.483 27.4666 381.788 26.3476C382.195 25.3303 382.5 24.313 382.907 23.3974L385.348 17.2937H388.604V34.0789H388.502Z" fill="#127971"/>
<path d="M399.082 34.0788H395.928V17.3953H404.779V19.8368H398.98V34.0788H399.082Z" fill="#127971"/>
<path d="M414.646 34.0788H411.492V17.3953H417.8C419.224 17.3953 420.241 17.9039 420.851 18.9212C421.36 19.735 421.665 20.854 421.665 22.1765C421.665 22.9903 421.564 23.7024 421.36 24.3128C421.055 25.1266 420.648 25.6353 420.139 26.1439C419.732 26.4491 419.122 26.7543 418.512 26.9578C417.901 27.1612 417.291 27.1612 416.579 27.1612H414.443V34.0788H414.646ZM414.646 19.9385V24.7197H416.274C416.986 24.7197 417.596 24.5163 417.901 24.2111C418.308 23.8042 418.512 23.0921 418.512 22.1765C418.512 21.261 418.308 20.6506 418.003 20.4471C417.698 20.1419 416.986 20.0402 416.07 20.0402H414.646V19.9385Z" fill="#127971"/>
<path d="M429.193 34.0788H425.836L429.804 17.3953H433.974L437.738 34.0788H434.381L433.568 29.8062H429.905L429.193 34.0788ZM431.431 22.6852L430.516 27.3647H433.161L432.347 22.6852C432.245 22.38 432.245 22.0748 432.245 21.8713C432.245 21.5661 432.143 21.1592 432.042 20.4471L431.94 19.3281L431.736 20.4471C431.635 20.9558 431.635 21.3627 431.635 21.7696C431.533 21.9731 431.431 22.38 431.431 22.6852Z" fill="#127971"/>
<path d="M445.47 145.167H0.305298L16.4802 47.4058H149.134H461.645L445.47 145.167Z" fill="url(#paint0_linear_2107_6301)" stroke="url(#paint1_linear_2107_6301)" stroke-width="0.682294" stroke-miterlimit="10" stroke-linecap="round" stroke-linejoin="round"/>
<path d="M65.3101 75.28L58.2908 113.123H49.5421L52.3905 97.6603H35.1984L32.35 113.225H23.6013L30.5189 75.28H39.2675L36.5209 90.2341H53.713L56.4597 75.28H65.3101Z" fill="white"/>
<path d="M94.9132 105.087H77.3141L72.4311 113.225H63.479L87.3852 75.28H96.0322L106.002 113.123H96.846L94.9132 105.087ZM93.3872 98.3724L90.0302 83.8252L81.3833 98.3724H93.3872Z" fill="white"/>
<path d="M152.084 75.2797L145.065 113.123H136.418L142.115 82.4007H129.094L127.364 90.3356C124.109 105.188 120.447 113.733 111.596 113.733C110.274 113.733 108.951 113.53 107.426 113.123L109.358 105.697C109.867 105.9 110.376 105.9 110.884 105.9C115.36 105.9 117.497 100.305 119.633 90.539L122.99 75.178H152.084V75.2797Z" fill="white"/>
<path d="M155.34 94.2013C157.375 82.9094 167.751 74.5676 179.653 74.5676C191.555 74.5676 198.88 82.8076 196.744 94.2013C194.709 105.493 184.333 113.835 172.43 113.835C160.528 113.835 153.305 105.493 155.34 94.2013ZM187.893 94.2013C189.216 86.9785 185.045 82.0955 178.229 82.0955C171.515 82.0955 165.513 86.9785 164.19 94.2013C162.868 101.424 167.039 106.307 173.855 106.307C180.67 106.409 186.571 101.424 187.893 94.2013Z" fill="white"/>
<path d="M232.45 82.5026H214.444L208.849 113.225H200.101L207.12 75.3816H233.875L232.45 82.5026Z" fill="white"/>
<path d="M229.195 94.2013C231.229 82.9094 241.606 74.5676 253.508 74.5676C265.41 74.5676 272.735 82.8076 270.598 94.2013C268.564 105.493 258.188 113.835 246.285 113.835C234.281 113.835 227.059 105.493 229.195 94.2013ZM261.748 94.2013C263.07 86.9785 258.9 82.0955 252.084 82.0955C245.37 82.0955 239.368 86.9785 238.045 94.2013C236.723 101.424 240.894 106.307 247.709 106.307C254.424 106.409 260.426 101.424 261.748 94.2013Z" fill="white"/>
<path d="M309.255 102.543C308.035 109.156 302.134 113.225 292.572 113.225H273.956L280.975 75.3816H298.574C307.323 75.3816 311.9 78.9421 310.68 85.1475C309.968 89.0132 307.424 91.8616 303.762 93.4893C308.136 94.8118 310.069 97.9654 309.255 102.543ZM300.507 101.831C301.117 98.6775 299.286 97.1515 295.217 97.1515H285.553L283.823 106.714H293.487C297.455 106.714 299.896 105.086 300.507 101.831ZM286.672 91.0478H294.81C298.574 91.0478 300.914 89.5219 301.422 86.47C301.931 83.5199 300.303 81.8922 296.438 81.8922H288.299L286.672 91.0478Z" fill="white"/>
<path d="M315.054 94.2013C317.089 82.9094 327.465 74.5676 339.367 74.5676C351.269 74.5676 358.594 82.8076 356.458 94.2013C354.423 105.493 344.047 113.835 332.144 113.835C320.14 113.835 312.918 105.493 315.054 94.2013ZM347.607 94.2013C348.93 86.9785 344.759 82.0955 337.943 82.0955C331.229 82.0955 325.227 86.9785 323.904 94.2013C322.582 101.424 326.753 106.307 333.569 106.307C340.283 106.409 346.285 101.424 347.607 94.2013Z" fill="white"/>
<path d="M392.062 82.5026H374.056L368.461 113.225H359.713L366.732 75.3816H393.487L392.062 82.5026Z" fill="white"/>
<path d="M388.807 94.2013C390.842 82.9094 401.218 74.5676 413.12 74.5676C425.023 74.5676 432.347 82.8076 430.211 94.2013C428.176 105.493 417.8 113.835 405.898 113.835C393.995 113.835 386.773 105.493 388.807 94.2013ZM421.36 94.2013C422.683 86.9785 418.512 82.0955 411.696 82.0955C404.982 82.0955 398.98 86.9785 397.658 94.2013C396.335 101.424 400.506 106.307 407.322 106.307C414.036 106.409 420.038 101.424 421.36 94.2013Z" fill="white"/>
<path d="M330.211 197.252H82.1968L89.623 133.875H150.355H337.536L330.211 197.252Z" fill="url(#paint2_linear_2107_6301)" stroke="url(#paint3_linear_2107_6301)" stroke-width="2.03457" stroke-miterlimit="10" stroke-linecap="round" stroke-linejoin="round"/>
<path d="M128.687 151.576L123.397 180.467H116.785L121.057 157.07H108.036L103.763 180.467H97.1509L102.441 151.576H128.687Z" fill="white"/>
<path d="M153.915 175.076L152.898 180.467H130.518L135.808 151.576H157.679L156.662 156.968H141.505L140.386 163.275H153.814L152.898 168.463H139.368L138.147 175.177H153.915V175.076Z" fill="white"/>
<path d="M186.774 162.054C185.553 168.463 180.06 172.532 172.328 172.532H166.53L165.106 180.467H158.392L163.681 151.576H176.194C183.824 151.576 187.995 155.544 186.774 162.054ZM179.958 162.054C180.568 158.901 178.839 157.07 174.77 157.07H169.277L167.445 167.141H172.939C177.008 167.039 179.449 165.208 179.958 162.054Z" fill="white"/>
<path d="M193.081 151.576H199.693L196.234 170.396L213.528 151.576H219.836L214.546 180.467H207.933L211.392 161.647L194.098 180.467H187.791L193.081 151.576Z" fill="white"/>
<path d="M222.277 166.021C223.905 157.476 231.738 151.067 240.792 151.067C249.846 151.067 255.441 157.375 253.813 166.021C252.186 174.668 244.352 180.976 235.299 180.976C226.245 180.976 220.751 174.567 222.277 166.021ZM247.099 166.021C248.116 160.528 244.963 156.764 239.775 156.764C234.587 156.764 230.009 160.528 228.991 166.021C227.974 171.515 231.128 175.279 236.316 175.279C241.606 175.279 246.184 171.515 247.099 166.021Z" fill="white"/>
<path d="M286.366 174.973L284.23 186.367H278.024L279.143 180.365H258.798L257.679 186.367H251.473L253.609 174.973H254.728C258.492 174.872 260.629 168.666 262.358 160.528L264.393 151.474H286.57L282.297 174.872H286.366V174.973ZM262.867 174.973H275.786L279.143 156.967H269.276L268.36 161.138C266.834 167.344 265.207 172.634 262.867 174.973Z" fill="white"/>
<path d="M310.781 174.262H297.353L293.691 180.467H286.875L305.084 151.576H311.697L319.326 180.467H312.307L310.781 174.262ZM309.662 169.175L307.119 158.087L300.507 169.175H309.662Z" fill="white"/>
<path d="M355.237 59.4094H222.989L229.703 1.01709H362.052L355.237 59.4094Z" fill="url(#paint4_linear_2107_6301)" stroke="url(#paint5_linear_2107_6301)" stroke-width="2.03457" stroke-miterlimit="10" stroke-linecap="round" stroke-linejoin="round"/>
<path d="M265.512 48.1174L268.869 29.5011L256.967 44.7604H253.813L247.404 29.8063L244.047 48.0157H237.333L243.03 16.8867H248.93L256.967 36.2152L272.022 16.8867H277.923L272.226 48.0157H265.512V48.1174Z" fill="white"/>
<path d="M285.756 16.9885H292.877L289.113 37.2325L307.627 16.9885H314.342L308.645 48.1175H301.524L305.288 27.8735L286.773 48.1175H279.957L285.756 16.9885Z" fill="white"/>
<path d="M347.098 28.2803C345.776 35.1979 339.875 39.4705 331.534 39.4705H325.226L323.599 48.0157H316.376L322.073 16.8867H335.501C343.944 16.9884 348.319 21.3628 347.098 28.2803ZM339.774 28.2803C340.384 24.8216 338.553 22.8887 334.178 22.8887H328.278L326.244 33.6719H332.144C336.62 33.6719 339.163 31.6374 339.774 28.2803Z" fill="white"/>
</g>
<defs>
<linearGradient id="paint0_linear_2107_6301" x1="225.291" y1="145.19" x2="225.291" y2="47.4076" gradientUnits="userSpaceOnUse">
<stop stop-color="#127971"/>
<stop offset="1" stop-color="#127971"/>
</linearGradient>
<linearGradient id="paint1_linear_2107_6301" x1="5.69599" y1="96.2985" x2="450.244" y2="148.088" gradientUnits="userSpaceOnUse">
<stop stop-color="white"/>
<stop offset="1" stop-color="#D0E9F0"/>
</linearGradient>
<linearGradient id="paint2_linear_2107_6301" x1="206.176" y1="197.284" x2="206.176" y2="133.894" gradientUnits="userSpaceOnUse">
<stop stop-color="#F08334"/>
<stop offset="1" stop-color="#FFD529"/>
</linearGradient>
<linearGradient id="paint3_linear_2107_6301" x1="84.8667" y1="165.589" x2="331.523" y2="194.324" gradientUnits="userSpaceOnUse">
<stop stop-color="#FFFADF"/>
<stop offset="1" stop-color="#FBF193"/>
</linearGradient>
<linearGradient id="paint4_linear_2107_6301" x1="289.096" y1="59.4215" x2="289.096" y2="1.01709" gradientUnits="userSpaceOnUse">
<stop stop-color="#F08334"/>
<stop offset="1" stop-color="#FFD529"/>
</linearGradient>
<linearGradient id="paint5_linear_2107_6301" x1="225.332" y1="30.2193" x2="357.866" y2="45.6595" gradientUnits="userSpaceOnUse">
<stop stop-color="#FFFADF"/>
<stop offset="1" stop-color="#FBF193"/>
</linearGradient>
<clipPath id="clip0_2107_6301">
<rect width="464" height="200" fill="white"/>
</clipPath>
</defs>
</svg>
