<svg width="253" height="111" fill="none" xmlns="http://www.w3.org/2000/svg"><mask id="a" maskUnits="userSpaceOnUse" x="-2" y="-2" width="257" height="115" fill="#000"><path fill="#fff" d="M-2-2h257v115H-2z"/><path d="M77.738 70.108v15.235H.908L.101 73.624l45.19-71.265h15.454l-16.7 28.345-24.242 39.404h57.934zM65.068 2.36V109h-19.41V2.36h19.41zm96.386 44.165V64.47c0 8.203-.83 15.21-2.49 21.02-1.66 5.81-4.053 10.572-7.178 14.282-3.125 3.663-6.86 6.373-11.206 8.13-4.346 1.709-9.18 2.564-14.502 2.564-4.248 0-8.203-.537-11.865-1.611-3.662-1.124-6.958-2.833-9.888-5.127-2.881-2.344-5.37-5.323-7.47-8.936-2.051-3.613-3.638-7.935-4.761-12.964-1.075-5.03-1.612-10.815-1.612-17.358V46.524c0-8.203.83-15.185 2.49-20.947 1.71-5.762 4.127-10.474 7.252-14.136 3.125-3.662 6.86-6.323 11.206-7.983 4.345-1.709 9.179-2.563 14.502-2.563 4.297 0 8.252.537 11.865 1.61 3.662 1.075 6.933 2.76 9.814 5.055 2.93 2.246 5.42 5.175 7.471 8.789 2.051 3.564 3.613 7.861 4.688 12.89 1.123 4.98 1.684 10.742 1.684 17.285zm-19.336 20.582V43.815c0-4.102-.244-7.667-.732-10.694-.44-3.076-1.099-5.688-1.978-7.837-.879-2.148-1.977-3.882-3.296-5.2-1.318-1.367-2.832-2.368-4.541-3.003-1.709-.635-3.589-.952-5.639-.952-2.539 0-4.81.513-6.812 1.538-2.002.977-3.686 2.54-5.054 4.688-1.367 2.148-2.417 5.004-3.149 8.569-.684 3.516-1.025 7.812-1.025 12.89v23.292c0 4.101.219 7.69.659 10.766.488 3.076 1.172 5.713 2.051 7.91.927 2.198 2.026 4.004 3.295 5.42a12.926 12.926 0 004.541 3.076c1.709.635 3.589.953 5.64.953 2.588 0 4.859-.513 6.812-1.539 2.002-1.025 3.686-2.636 5.053-4.834 1.368-2.246 2.393-5.151 3.077-8.715.732-3.614 1.098-7.96 1.098-13.037zm109.937 3.002v15.235h-76.831l-.806-11.719 45.19-71.265h15.454l-16.699 28.345-24.243 39.404h57.935zM239.384 2.36V109h-19.409V2.36h19.409z"/></mask><path d="M77.738 70.108h2v-2h-2v2zm0 15.235v2h2v-2h-2zm-76.83 0l-1.996.137.128 1.863H.907v-2zM.101 73.624l-1.69-1.071-.35.554.044.654 1.996-.137zm45.19-71.265v-2h-1.1l-.589.93 1.689 1.07zm15.454 0l1.723 1.016L64.246.359h-3.5v2zm-16.7 28.345l1.704 1.048.01-.016.01-.017-1.723-1.015zm-24.24 39.404L18.1 69.06l-1.875 3.048h3.579v-2zM65.067 2.36h2v-2h-2v2zm0 106.641v2h2v-2h-2zm-19.409 0h-2v2h2v-2zm0-106.64v-2h-2v2h2zm30.08 67.748v15.235h4V70.108h-4zm2 13.235H.908v4h76.83v-4zM2.903 85.206l-.806-11.72-3.99.275.805 11.719 3.99-.274zM1.79 74.696L46.98 3.43l-3.378-2.142-45.19 71.265 3.378 2.142zM45.292 4.358h15.454v-4H45.292v4zm13.73-3.015L42.325 29.69l3.446 2.03 16.7-28.344-3.447-2.03zM42.344 29.656L18.1 69.06l3.407 2.096L45.75 31.752l-3.407-2.096zm-22.54 42.452h57.935v-4H19.804v4zM63.068 2.36V109h4V2.36h-4zm2 104.641h-19.41v4h19.41v-4zm-17.409 2V2.36h-4V109h4zm-2-104.64h19.41v-4h-19.41v4zm106.128 95.412l1.522 1.298.008-.01-1.53-1.288zM140.58 107.9l.732 1.862.009-.004.009-.004-.75-1.854zm-26.367.953l-.586 1.912.011.003.012.004.563-1.919zm-9.888-5.127l-1.262 1.551.014.012.015.011 1.233-1.574zm-7.47-8.936l-1.74.987.005.01.005.008 1.73-1.005zm-4.761-12.964l-1.956.418.002.009.002.009 1.952-.436zm.879-56.25l-1.918-.569-.002.008-.002.007 1.922.554zM111.43 3.458l.713 1.868.01-.003.009-.004-.732-1.861zm26.367-.952l-.57 1.917.007.002.563-1.92zm9.814 5.054l-1.246 1.564.015.011.014.012 1.217-1.587zm7.471 8.789l-1.739.987.005.01 1.734-.997zm4.688 12.89l-1.956.418.002.011.003.011 1.951-.44zm-18.384 3.882l-1.98.283.002.018.003.018 1.975-.319zm-5.274-13.037l-1.439 1.388.012.013.013.013 1.414-1.414zm-16.992-2.417l.877 1.797.018-.008.017-.009-.912-1.78zm-8.203 13.257l-1.959-.403-.002.01-.002.011 1.963.382zm-.366 46.948l-1.98.283.002.015.003.016 1.975-.314zm2.051 7.91l-1.857.743.007.018.007.017 1.843-.778zm3.295 5.42l-1.489 1.335.025.027.025.026 1.439-1.388zm4.541 3.076l-.742 1.857.023.01.023.008.696-1.875zm12.452-.586l-.912-1.78-.009.005-.009.005.93 1.77zm5.053-4.834l1.698 1.057.006-.008.005-.009-1.709-1.04zm3.077-8.715l-1.961-.398-.002.01-.002.01 1.965.378zm18.434-33.619V64.47h4V46.524h-4zm0 17.945c0 8.079-.819 14.89-2.413 20.47l3.846 1.1c1.726-6.04 2.567-13.243 2.567-21.57h-4zm-2.413 20.47c-1.601 5.605-3.88 10.095-6.785 13.544l3.06 2.577c3.346-3.973 5.852-9.004 7.571-15.021l-3.846-1.1zm-6.776 13.534c-2.922 3.425-6.395 5.94-10.435 7.574l1.5 3.708c4.652-1.881 8.65-4.785 11.978-8.685l-3.043-2.597zm-10.417 7.567c-4.082 1.606-8.663 2.425-13.77 2.425v4c5.538 0 10.625-.89 15.234-2.702l-1.464-3.723zm-13.77 2.425c-4.079 0-7.842-.516-11.302-1.531l-1.126 3.839c3.864 1.133 8.011 1.692 12.428 1.692v-4zm-11.279-1.524c-3.434-1.053-6.51-2.65-9.24-4.789l-2.467 3.149c3.128 2.451 6.645 4.272 10.535 5.465l1.172-3.825zm-9.212-4.766c-2.671-2.173-5.01-4.959-7.003-8.389l-3.459 2.01c2.206 3.796 4.848 6.968 7.938 9.482l2.524-3.103zm-6.993-8.371c-1.933-3.406-3.459-7.532-4.548-12.413l-3.904.872c1.156 5.178 2.804 9.694 4.973 13.515l3.479-1.974zM94.05 81.409c-1.039-4.86-1.568-10.502-1.568-16.94h-4c0 6.647.546 12.578 1.656 17.776l3.912-.836zm-1.568-16.94V46.524h-4V64.47h4zm0-17.945c0-8.08.82-14.864 2.412-20.393l-3.843-1.108c-1.727 5.994-2.569 13.175-2.569 21.501h4zm2.408-20.378c1.649-5.558 3.95-10.003 6.855-13.406l-3.043-2.597c-3.346 3.921-5.877 8.9-7.647 14.865l3.835 1.138zm6.855-13.406c2.916-3.417 6.377-5.877 10.398-7.414l-1.427-3.736c-4.67 1.784-8.679 4.646-12.014 8.553l3.043 2.597zm10.417-7.42c4.082-1.606 8.663-2.425 13.77-2.425v-4c-5.538 0-10.625.89-15.234 2.702l1.464 3.722zm13.77-2.425c4.13 0 7.89.516 11.295 1.528l1.14-3.834c-3.822-1.136-7.972-1.694-12.435-1.694v4zm11.302 1.53c3.423 1.004 6.46 2.571 9.131 4.699l2.492-3.129c-3.09-2.462-6.596-4.264-10.497-5.408l-1.126 3.838zm9.16 4.722c2.692 2.064 5.014 4.78 6.949 8.189l3.478-1.975c-2.166-3.817-4.825-6.96-7.993-9.389l-2.434 3.175zm6.954 8.199c1.925 3.345 3.425 7.437 4.466 12.311l3.911-.835c-1.107-5.185-2.733-9.687-4.909-13.47l-3.468 1.994zm4.471 12.333c1.082 4.802 1.635 10.411 1.635 16.845h4c0-6.651-.57-12.566-1.733-17.725l-3.902.88zm-13.701 37.427V43.815h-4v23.29h4zm0-23.291c0-4.176-.248-7.851-.758-11.012l-3.949.637c.467 2.893.707 6.346.707 10.375h4zm-.752-10.977c-.456-3.188-1.149-5.969-2.107-8.311l-3.702 1.514c.8 1.955 1.425 4.398 1.849 7.363l3.96-.566zm-2.107-8.311c-.955-2.336-2.186-4.311-3.732-5.857l-2.829 2.828c1.091 1.09 2.057 2.582 2.859 4.543l3.702-1.514zm-3.707-5.831c-1.518-1.574-3.282-2.746-5.284-3.49l-1.393 3.75c1.416.526 2.678 1.356 3.798 2.516l2.879-2.776zm-5.284-3.49c-1.958-.727-4.077-1.077-6.336-1.077v4c1.842 0 3.483.285 4.943.827l1.393-3.75zm-6.336-1.077c-2.815 0-5.405.57-7.724 1.758l1.824 3.56c1.685-.863 3.636-1.318 5.9-1.318v-4zm-7.689 1.74c-2.379 1.161-4.328 2.997-5.864 5.412l3.375 2.147c1.198-1.882 2.618-3.17 4.243-3.963l-1.754-3.595zm-5.864 5.412c-1.541 2.421-2.659 5.531-3.421 9.24l3.918.805c.703-3.42 1.684-6.022 2.878-7.898l-3.375-2.147zm-3.425 9.261c-.716 3.681-1.062 8.115-1.062 13.273h4c0-4.999.337-9.16.988-12.51l-3.926-.763zm-1.062 13.273v23.29h4v-23.29h-4zm0 23.29c0 4.169.223 7.856.679 11.05l3.96-.566c-.423-2.958-.639-6.449-.639-10.483h-4zm.684 11.08c.504 3.18 1.22 5.969 2.169 8.34l3.714-1.486c-.81-2.023-1.461-4.508-1.933-7.48l-3.95.627zm2.183 8.375c.993 2.352 2.2 4.36 3.649 5.977l2.979-2.67c-1.09-1.215-2.08-2.82-2.943-4.863l-3.685 1.556zm3.699 6.03a14.91 14.91 0 005.238 3.545l1.485-3.714a10.925 10.925 0 01-3.844-2.607l-2.879 2.776zm5.284 3.563c1.958.727 4.077 1.078 6.336 1.078v-4c-1.842 0-3.483-.285-4.943-.828l-1.393 3.75zm6.336 1.078c2.856 0 5.456-.568 7.741-1.768l-1.859-3.541c-1.621.85-3.562 1.309-5.882 1.309v4zm7.723-1.758c2.371-1.215 4.311-3.1 5.84-5.558l-3.396-2.113c-1.205 1.936-2.634 3.274-4.267 4.11l1.823 3.56zm5.851-5.575c1.529-2.511 2.619-5.663 3.332-9.379l-3.929-.753c-.654 3.413-1.614 6.072-2.82 8.052l3.417 2.08zm3.328-9.358c.766-3.783 1.138-8.269 1.138-13.434h-4c0 4.99-.36 9.195-1.059 12.64l3.921.794zm109.075-10.432h2v-2h-2v2zm0 15.235v2h2v-2h-2zm-76.831 0l-1.996.137.128 1.863h1.868v-2zm-.806-11.719l-1.689-1.071-.351.554.045.654 1.995-.137zm45.19-71.265v-2h-1.1l-.589.93 1.689 1.07zm15.454 0l1.724 1.016 1.776-3.016h-3.5v2zm-16.699 28.345l1.704 1.048.01-.016.009-.017-1.723-1.015zM194.12 70.108l-1.703-1.048-1.876 3.048h3.579v-2zM239.384 2.36h2v-2h-2v2zm0 106.641v2h2v-2h-2zm-19.409 0h-2v2h2v-2zm0-106.64v-2h-2v2h2zm30.08 67.748v15.235h4V70.108h-4zm2 13.235h-76.831v4h76.831v-4zm-74.836 1.863l-.806-11.72-3.99.275.805 11.719 3.991-.274zm-1.112-10.51l45.19-71.266-3.378-2.142-45.19 71.265 3.378 2.142zM219.608 4.36h15.454v-4h-15.454v4zm13.731-3.015L216.64 29.69l3.446 2.03 16.7-28.344-3.447-2.03zM216.66 29.656L192.417 69.06l3.407 2.096 24.243-39.404-3.407-2.096zm-22.54 42.452h57.935v-4H194.12v4zM237.384 2.36V109h4V2.36h-4zm2 104.641h-19.409v4h19.409v-4zm-17.409 2V2.36h-4V109h4zm-2-104.64h19.409v-4h-19.409v4z" fill="#fff" mask="url(#a)"/></svg>