<svg width="464" height="200" fill="none" xmlns="http://www.w3.org/2000/svg"><g clip-path="url(#clip0_2107_6301)"><path d="M50.56 34.079h-3.154V17.395h3.153v6.613h4.375v-6.613h3.153V34.08h-3.153v-7.63h-4.375v7.63zm16.988 0h-3.357l3.967-16.684h4.171l3.764 16.684h-3.357l-.814-4.273H68.26l-.712 4.273zm2.238-11.394l-.916 4.781h2.645l-.813-4.68c-.102-.304-.102-.61-.102-.813 0-.305-.102-.712-.204-1.424l-.203-1.22-.203 1.118c-.102.509-.102.916-.102 1.323 0 .203-.102.61-.102.915zm18.82 5.494h3.154l-.102.915c0 1.628-.305 2.95-1.018 3.866-.813 1.017-2.034 1.526-3.662 1.526-1.627 0-2.848-.305-3.662-1.017-.712-.61-1.22-1.526-1.526-2.747-.203-.916-.305-2.238-.305-3.968v-2.34c0-2.543.305-4.272.814-5.29.813-1.423 2.34-2.136 4.577-2.136 1.425 0 2.544.407 3.358 1.12.813.712 1.22 1.83 1.22 3.255.102.407.102.814.102 1.322h-3.052c-.203-1.322-.203-1.932-.203-1.932-.204-.713-.61-1.12-1.323-1.12-.915 0-1.526.407-1.933 1.323-.203.509-.305 1.322-.305 2.34v5.188c0 1.017.102 1.831.305 2.34.306.915 1.018 1.322 1.933 1.322.712 0 1.221-.509 1.424-1.526.204-.61.204-1.424.204-2.441zm8.544-8.24v-2.442h10.377v2.442h-3.662V34.18h-3.154V19.939h-3.56zm16.176 6.816v-2.34c0-2.543.305-4.273.814-5.29.813-1.424 2.339-2.137 4.577-2.137s3.764.713 4.578 2.137c.61 1.017.916 2.747.916 5.29v2.34c0 1.83-.102 3.051-.306 3.967-.203 1.22-.712 2.136-1.424 2.747-.814.712-2.034 1.017-3.662 1.017-1.628 0-2.848-.305-3.662-1.017-.712-.61-1.221-1.526-1.526-2.747-.204-.916-.305-2.238-.305-3.968zm3.153-3.052v4.68c0 1.016.102 1.83.305 2.339.306.915 1.018 1.322 1.933 1.322 1.018 0 1.628-.406 1.933-1.322.204-.509.305-1.323.305-2.543v-4.273c0-1.22-.101-2.136-.203-2.645-.305-1.119-1.017-1.627-2.035-1.627-.915 0-1.526.406-1.933 1.322-.203.509-.305 1.322-.305 2.34v.407zM141.2 34.079h-3.154V19.837h-3.662v7.223c0 2.543-.204 4.374-.611 5.188-.61 1.424-2.034 2.136-4.17 2.136v-2.747c.813 0 1.424-.407 1.627-1.22.204-.509.204-1.73.204-3.56v-9.563h9.664v16.785h.102zm10.579-16.684v6.714h2.137c.712 0 1.322.102 1.933.204.61.102 1.119.407 1.627.814.611.407.916 1.017 1.221 1.729a7.95 7.95 0 01.305 2.238c0 1.424-.407 2.645-1.119 3.56-.814 1.018-2.034 1.425-3.662 1.425h-5.493V17.395h3.051zm0 14.242h1.425c.915 0 1.526-.203 1.932-.508.407-.306.611-1.018.611-1.933 0-.916-.204-1.628-.611-2.035-.406-.407-.915-.61-1.627-.61h-1.628v5.086h-.102zm16.785 2.442h-3.153V17.395h3.153v6.613h4.375v-6.613h3.153V34.08h-3.153v-7.63h-4.375v7.63zm16.989 0h-3.357l3.967-16.684h4.171l3.764 16.684h-3.357l-.814-4.273h-3.662l-.712 4.273zm2.238-11.394l-.915 4.68h2.645l-.814-4.68c-.102-.305-.102-.61-.102-.814 0-.305-.102-.712-.204-1.424l-.203-1.119-.203 1.12c-.102.508-.102.915-.102 1.322 0 .203 0 .61-.102.915zm22.686 11.394h-3.154v-7.223h-1.831c-.407 0-.915.102-1.322.204-.407.101-.712.508-.916 1.119-.102.305-.102.915-.102 1.627v1.017c0 .814 0 1.425-.101 1.933 0 .509-.102.916-.306 1.323h-3.458v-.305c.305-.204.407-.712.508-1.73.102-1.017.102-1.933.102-2.95v-.61c0-.916.203-1.526.509-2.035.407-.509 1.017-.915 1.932-1.017-.915-.102-1.627-.61-2.034-1.424-.305-.61-.509-1.526-.509-2.543 0-1.425.407-2.544 1.323-3.154.814-.61 1.933-.814 3.357-.814h5.9V34.08h.102zm-3.154-9.563V19.94h-2.34c-.61 0-1.119.101-1.424.407-.305.305-.508.915-.508 1.83 0 .814.203 1.425.508 1.832.305.407.814.61 1.323.61h2.441v-.102zm181.179 9.563h-3.154v-3.154c0-.508 0-1.22.102-2.34.102-1.118.102-1.83.102-2.34 0-.61.102-1.627.203-3.051.102-.712.102-1.322.102-1.628-.407 1.526-.814 2.645-1.119 3.56-.305 1.018-.712 2.035-1.119 3.053l-2.442 5.9h-3.255V17.395h3.154v4.986c-.102 1.525-.102 2.542-.102 2.95l-.305 4.679c.407-1.424.814-2.543 1.119-3.662.407-1.018.712-2.035 1.119-2.95l2.441-6.104h3.256v16.785h-.102zm10.58 0h-3.154V17.395h8.851v2.442h-5.799v14.242h.102zm15.564 0h-3.154V17.395h6.308c1.424 0 2.441.509 3.051 1.526.509.814.814 1.933.814 3.256 0 .813-.101 1.525-.305 2.136-.305.814-.712 1.322-1.221 1.83-.407.306-1.017.611-1.627.815-.611.203-1.221.203-1.933.203h-2.136v6.918h.203zm0-14.14v4.78h1.628c.712 0 1.322-.203 1.627-.508.407-.407.611-1.119.611-2.034 0-.916-.204-1.526-.509-1.73-.305-.305-1.017-.407-1.933-.407h-1.424v-.101zm14.547 14.14h-3.357l3.968-16.684h4.17l3.764 16.684h-3.357l-.813-4.273h-3.663l-.712 4.273zm2.238-11.394l-.915 4.68h2.645l-.814-4.68c-.102-.305-.102-.61-.102-.814 0-.305-.102-.712-.203-1.424l-.102-1.119-.204 1.12c-.101.508-.101.915-.101 1.322a2.42 2.42 0 00-.204.915z" fill="#127971"/><path d="M445.47 145.167H.305L16.48 47.406h445.165l-16.175 97.761z" fill="url(#paint0_linear_2107_6301)" stroke="url(#paint1_linear_2107_6301)" stroke-width=".682" stroke-miterlimit="10" stroke-linecap="round" stroke-linejoin="round"/><path d="M65.31 75.28l-7.02 37.843h-8.748l2.849-15.463H35.198l-2.848 15.565h-8.749L30.52 75.28h8.748l-2.746 14.954h17.192L56.46 75.28h8.85zm29.603 29.807H77.314l-4.883 8.138H63.48L87.385 75.28h8.647l9.97 37.843h-9.156l-1.933-8.036zm-1.526-6.715L90.03 83.825l-8.647 14.547h12.004zm58.697-23.092l-7.019 37.843h-8.647l5.697-30.722h-13.021l-1.73 7.935c-3.255 14.852-6.917 23.397-15.768 23.397-1.322 0-2.645-.203-4.17-.61l1.932-7.426c.509.203 1.018.203 1.526.203 4.476 0 6.613-5.595 8.749-15.361l3.357-15.361h29.094v.102zm3.256 18.921c2.035-11.292 12.411-19.633 24.313-19.633s19.227 8.24 17.091 19.633c-2.035 11.292-12.411 19.634-24.314 19.634-11.902 0-19.125-8.342-17.09-19.634zm32.553 0c1.323-7.222-2.848-12.105-9.664-12.105-6.714 0-12.716 4.882-14.039 12.105-1.322 7.223 2.849 12.106 9.665 12.106 6.815.102 12.716-4.883 14.038-12.106zm44.557-11.698h-18.006l-5.595 30.722h-8.748l7.019-37.843h26.755l-1.425 7.12zm-3.255 11.698c2.034-11.292 12.411-19.633 24.313-19.633s19.227 8.24 17.09 19.633c-2.034 11.292-12.41 19.634-24.313 19.634-12.004 0-19.226-8.342-17.09-19.634zm32.553 0c1.322-7.222-2.848-12.105-9.664-12.105-6.714 0-12.716 4.882-14.039 12.105-1.322 7.223 2.849 12.106 9.664 12.106 6.715.102 12.717-4.883 14.039-12.106zm47.507 8.342c-1.22 6.613-7.121 10.682-16.683 10.682h-18.616l7.019-37.843h17.599c8.749 0 13.326 3.56 12.106 9.765-.712 3.866-3.256 6.715-6.918 8.342 4.374 1.323 6.307 4.476 5.493 9.054zm-8.748-.712c.61-3.154-1.221-4.68-5.29-4.68h-9.664l-1.73 9.563h9.664c3.968 0 6.409-1.628 7.02-4.883zm-13.835-10.783h8.138c3.764 0 6.104-1.526 6.612-4.578.509-2.95-1.119-4.578-4.984-4.578h-8.139l-1.627 9.156zm28.382 3.153c2.035-11.292 12.411-19.633 24.313-19.633s19.227 8.24 17.091 19.633c-2.035 11.292-12.411 19.634-24.314 19.634-12.004 0-19.226-8.342-17.09-19.634zm32.553 0c1.323-7.222-2.848-12.105-9.664-12.105-6.714 0-12.716 4.882-14.039 12.105-1.322 7.223 2.849 12.106 9.665 12.106 6.714.102 12.716-4.883 14.038-12.106zm44.455-11.698h-18.006l-5.595 30.722h-8.748l7.019-37.843h26.755l-1.425 7.12zm-3.255 11.698c2.035-11.292 12.411-19.633 24.313-19.633 11.903 0 19.227 8.24 17.091 19.633-2.035 11.292-12.411 19.634-24.313 19.634-11.903 0-19.125-8.342-17.091-19.634zm32.553 0c1.323-7.222-2.848-12.105-9.664-12.105-6.714 0-12.716 4.882-14.038 12.105-1.323 7.223 2.848 12.106 9.664 12.106 6.714.102 12.716-4.883 14.038-12.106z" fill="#fff"/><path d="M330.211 197.252H82.197l7.426-63.377h247.913l-7.325 63.377z" fill="url(#paint2_linear_2107_6301)" stroke="url(#paint3_linear_2107_6301)" stroke-width="2.035" stroke-miterlimit="10" stroke-linecap="round" stroke-linejoin="round"/><path d="M128.687 151.576l-5.29 28.891h-6.612l4.272-23.397h-13.021l-4.273 23.397h-6.612l5.29-28.891h26.246zm25.228 23.5l-1.017 5.391h-22.38l5.29-28.891h21.871l-1.017 5.392h-15.157l-1.119 6.307h13.428l-.916 5.188h-13.53l-1.221 6.714h15.768v-.101zm32.859-13.022c-1.221 6.409-6.714 10.478-14.446 10.478h-5.798l-1.424 7.935h-6.714l5.289-28.891h12.513c7.63 0 11.801 3.968 10.58 10.478zm-6.816 0c.61-3.153-1.119-4.984-5.188-4.984h-5.493l-1.832 10.071h5.494c4.069-.102 6.51-1.933 7.019-5.087zm13.123-10.478h6.612l-3.459 18.82 17.294-18.82h6.308l-5.29 28.891h-6.613l3.459-18.82-17.294 18.82h-6.307l5.29-28.891zm29.196 14.445c1.628-8.545 9.461-14.954 18.515-14.954s14.649 6.308 13.021 14.954c-1.627 8.647-9.461 14.955-18.514 14.955-9.054 0-14.548-6.409-13.022-14.955zm24.822 0c1.017-5.493-2.136-9.257-7.324-9.257s-9.766 3.764-10.784 9.257c-1.017 5.494 2.137 9.258 7.325 9.258 5.29 0 9.868-3.764 10.783-9.258zm39.267 8.952l-2.136 11.394h-6.206l1.119-6.002h-20.345l-1.119 6.002h-6.206l2.136-11.394h1.119c3.764-.101 5.901-6.307 7.63-14.445l2.035-9.054h22.177l-4.273 23.398h4.069v.101zm-23.499 0h12.919l3.357-18.006h-9.867l-.916 4.171c-1.526 6.206-3.153 11.496-5.493 13.835zm47.914-.711h-13.428l-3.662 6.205h-6.816l18.209-28.891h6.613l7.629 28.891h-7.019l-1.526-6.205zm-1.119-5.087l-2.543-11.088-6.612 11.088h9.155z" fill="#fff"/><path d="M355.237 59.41H222.989l6.714-58.393h132.349l-6.815 58.392z" fill="url(#paint4_linear_2107_6301)" stroke="url(#paint5_linear_2107_6301)" stroke-width="2.035" stroke-miterlimit="10" stroke-linecap="round" stroke-linejoin="round"/><path d="M265.512 48.117l3.357-18.616-11.902 15.26h-3.154l-6.409-14.955-3.357 18.21h-6.714l5.697-31.13h5.9l8.037 19.33 15.055-19.33h5.901l-5.697 31.13h-6.714v.101zm20.244-31.129h7.121l-3.764 20.245 18.514-20.244h6.715l-5.697 31.128h-7.121l3.764-20.243-18.515 20.244h-6.816l5.799-31.13zm61.342 11.292c-1.322 6.918-7.223 11.19-15.564 11.19h-6.308l-1.627 8.546h-7.223l5.697-31.13h13.428c8.443.102 12.818 4.477 11.597 11.394zm-7.324 0c.61-3.458-1.221-5.391-5.596-5.391h-5.9l-2.034 10.783h5.9c4.476 0 7.019-2.035 7.63-5.392z" fill="#fff"/></g><defs><linearGradient id="paint0_linear_2107_6301" x1="225.291" y1="145.19" x2="225.291" y2="47.408" gradientUnits="userSpaceOnUse"><stop stop-color="#127971"/><stop offset="1" stop-color="#127971"/></linearGradient><linearGradient id="paint1_linear_2107_6301" x1="5.696" y1="96.299" x2="450.244" y2="148.088" gradientUnits="userSpaceOnUse"><stop stop-color="#fff"/><stop offset="1" stop-color="#D0E9F0"/></linearGradient><linearGradient id="paint2_linear_2107_6301" x1="206.176" y1="197.284" x2="206.176" y2="133.894" gradientUnits="userSpaceOnUse"><stop stop-color="#F08334"/><stop offset="1" stop-color="#FFD529"/></linearGradient><linearGradient id="paint3_linear_2107_6301" x1="84.867" y1="165.589" x2="331.523" y2="194.324" gradientUnits="userSpaceOnUse"><stop stop-color="#FFFADF"/><stop offset="1" stop-color="#FBF193"/></linearGradient><linearGradient id="paint4_linear_2107_6301" x1="289.096" y1="59.422" x2="289.096" y2="1.017" gradientUnits="userSpaceOnUse"><stop stop-color="#F08334"/><stop offset="1" stop-color="#FFD529"/></linearGradient><linearGradient id="paint5_linear_2107_6301" x1="225.332" y1="30.219" x2="357.866" y2="45.66" gradientUnits="userSpaceOnUse"><stop stop-color="#FFFADF"/><stop offset="1" stop-color="#FBF193"/></linearGradient><clipPath id="clip0_2107_6301"><path fill="#fff" d="M0 0h464v200H0z"/></clipPath></defs></svg>